<?xml version="1.0" encoding="UTF-8"?>
<svg width="512" height="512" viewBox="0 0 512 512" xmlns="http://www.w3.org/2000/svg">
  <defs>
    <linearGradient id="bgGradient" x1="0%" y1="0%" x2="100%" y2="100%">
      <stop offset="0%" style="stop-color:#6C63FF;stop-opacity:1" />
      <stop offset="100%" style="stop-color:#4F46E5;stop-opacity:1" />
    </linearGradient>
    <linearGradient id="iconGradient" x1="0%" y1="0%" x2="100%" y2="100%">
      <stop offset="0%" style="stop-color:#FEF3C7;stop-opacity:1" />
      <stop offset="100%" style="stop-color:#FDE68A;stop-opacity:1" />
    </linearGradient>
  </defs>

  <circle cx="256" cy="256" r="240" fill="url(#bgGradient)"/>

  <g transform="translate(130, 110)">
    <path d="M125 20 L230 200 L20 200 Z"
          fill="url(#iconGradient)"
          stroke="#F59E0B"
          stroke-width="6"
          stroke-linejoin="round"/>

    <g transform="translate(180, 130) rotate(-15)">
      <rect x="0" y="0" width="30" height="120" rx="4" fill="#FCD34D" stroke="#D97706" stroke-width="2"/>
      <path d="M0 120 L15 150 L30 120 Z" fill="#EF4444" stroke="#DC2626" stroke-width="2"/>
      <rect x="0" y="110" width="30" height="12" rx="2" fill="#94A3B8" stroke="#64748B" stroke-width="2"/>
      <rect x="13" y="130" width="4" height="15" rx="1" fill="#374151"/>
    </g>

    <g transform="translate(40, 180)">
      <rect x="0" y="0" width="80" height="50" rx="6" fill="white" stroke="#E5E7EB" stroke-width="2"/>
      <line x1="40" y1="5" x2="40" y2="45" stroke="#E5E7EB" stroke-width="2"/>
      <path d="M40 5 C30 15 30 35 40 45 C50 35 50 15 40 5" stroke="#6C63FF" stroke-width="2" fill="none"/>
    </g>

    <text x="25" y="250" font-family="Arial" font-size="36" fill="white" font-weight="bold">∑</text>
    <text x="180" y="250" font-family="Arial" font-size="36" fill="white" font-weight="bold">π</text>
    <text x="100" y="260" font-family="Arial" font-size="28" fill="white" font-weight="bold">∫</text>
  </g>

  <text x="256" y="420" text-anchor="middle" font-family="'Microsoft YaHei', sans-serif" font-size="48" fill="white" font-weight="bold">数学英雄</text>
</svg>